<?xml version="1.0" encoding="UTF-8"?>
<svg id="Layer_2" xmlns="http://www.w3.org/2000/svg" viewBox="0 0 558.19 258.63">
  <defs>
    <style>
      .cls-1 {
        fill: #fff;
      }

      .cls-2 {
        fill: #0197f6;
      }
    </style>
  </defs>
  <g id="Layer_1-2" data-name="Layer_1">
    <g>
      <path class="cls-1" d="M354.06,164.28c0-33.21,21.06-59.69,51.47-67.96,1.05-.29,1.79-1.22,1.79-2.31V2.7c0-1.49-1.21-2.7-2.7-2.7H2.7C1.21,0,0,1.21,0,2.7v253.22c0,1.49,1.21,2.7,2.7,2.7h401.92c1.49,0,2.7-1.21,2.7-2.7v-21.21c0-1.09-.74-2.02-1.79-2.31-30.41-8.26-51.47-34.8-51.47-68.12Z"/>
      <g>
        <path class="cls-2" d="M354.06,164.28c0-33.21,21.06-59.69,51.47-67.96,1.05-.29,1.79-1.22,1.79-2.31V2.39c0-1.32-1.07-2.39-2.39-2.39H2.39C1.07,0,0,1.07,0,2.39v253.84c0,1.32,1.07,2.39,2.39,2.39h402.54c1.32,0,2.39-1.07,2.39-2.39v-21.52c0-1.09-.74-2.02-1.79-2.31-30.41-8.26-51.47-34.8-51.47-68.12ZM146.91,146.12c0,1.33-1.08,2.41-2.41,2.41h-46.18c-1.33,0-2.41,1.08-2.41,2.41v64.92c0,1.33-1.08,2.41-2.41,2.41h-47.61c-1.33,0-2.41-1.08-2.41-2.41v-106.43c0-1.33,1.08-2.41,2.41-2.41h98.6c1.33,0,2.41,1.08,2.41,2.41v36.7ZM146.91,83.02c0,1.33-1.08,2.41-2.41,2.41H45.9c-1.33,0-2.41-1.08-2.41-2.41v-40.25c0-1.33,1.08-2.41,2.41-2.41h98.6c1.33,0,2.41,1.08,2.41,2.41v40.25ZM220.5,215.86c0,1.33-1.08,2.41-2.41,2.41h-49.5c-1.33,0-2.41-1.08-2.41-2.41V42.77c0-1.33,1.08-2.41,2.41-2.41h49.5c1.33,0,2.41,1.08,2.41,2.41v173.09ZM328.97,87.84v128.02c0,1.33-1.08,2.41-2.41,2.41h-49.5c-1.33,0-2.41-1.08-2.41-2.41V87.84c0-1.33-1.08-2.41-2.41-2.41h-30.05c-1.33,0-2.41-1.08-2.41-2.41v-40.25c0-1.33,1.08-2.41,2.41-2.41h119.24c1.33,0,2.41,1.08,2.41,2.41v40.25c0,1.33-1.08,2.41-2.41,2.41h-30.05c-1.33,0-2.41,1.08-2.41,2.41Z"/>
        <path class="cls-2" d="M444.4,215.01c-4.29,2.22-13.03,3.33-18.43,3.33-32.15,0-55.16-23.29-55.16-54.05s23.15-53.91,55.3-53.91c5.41,0,14,1.11,18.3,3.19l-.28,28.69c-4.02-2.08-9.29-3.05-15.25-3.05-15.38,0-26.47,10.12-26.47,25.08s11.09,25.09,26.47,25.09c5.96,0,11.23-.83,15.25-2.91l.28,28.55Z"/>
        <path class="cls-2" d="M448.01,164.28c0-30.77,22.87-53.91,55.02-53.91s55.16,23.15,55.16,53.91-22.87,54.05-55.16,54.05-55.02-23.15-55.02-54.05ZM527.14,164.28c0-14.28-9.7-25.08-24.12-25.08s-23.98,10.81-23.98,25.08,9.56,25.22,23.98,25.22,24.12-10.95,24.12-25.22Z"/>
      </g>
    </g>
  </g>
</svg>