<?xml version="1.0" encoding="UTF-8"?>
<svg id="Layer_2" xmlns="http://www.w3.org/2000/svg" viewBox="0 0 267.25 267.25">
  <defs>
    <style>
      .cls-1 {
        fill: #fff;
      }

      .cls-2 {
        fill: #0197f6;
      }
    </style>
  </defs>
  <g id="Layer_1-2" data-name="Layer_1">
    <g>
      <circle class="cls-2" cx="133.63" cy="133.63" r="133.63"/>
      <g>
        <path class="cls-1" d="M176.73,55.85h-86.21c-1.16,0-2.11.94-2.11,2.11v35.19c0,1.16.94,2.11,2.11,2.11h86.21c1.16,0,2.11-.94,2.11-2.11v-35.19c0-1.16-.94-2.11-2.11-2.11Z"/>
        <path class="cls-1" d="M176.73,114.13h-86.21c-1.16,0-2.11.94-2.11,2.11v93.06c0,1.16.94,2.11,2.11,2.11h41.62c1.16,0,2.11-.94,2.11-2.11v-56.76c0-1.16.94-2.11,2.11-2.11h40.38c1.16,0,2.11-.94,2.11-2.11v-32.08c0-1.16-.94-2.11-2.11-2.11Z"/>
      </g>
    </g>
  </g>
</svg>